<svg width="129" height="137" viewBox="0 0 129 137" fill="none" xmlns="http://www.w3.org/2000/svg">
    <g clip-path="url(#clip0_2151_50834)">
        <path
            d="M107.999 26.0326C108.564 26.1741 109.124 26.3334 109.677 26.5208C109.931 26.6072 110.184 26.6988 110.435 26.7954C110.511 26.8246 110.761 26.8804 110.81 26.9436C110.709 26.8123 110.253 26.6927 110.704 26.9062C111.802 27.4254 112.858 28.0048 113.859 28.6938C114.081 28.8464 114.296 29.0085 114.515 29.1641C114.849 29.4012 114.341 29.0233 114.331 29.021C114.422 29.0407 114.656 29.2856 114.747 29.3621C115.193 29.7376 115.623 30.1315 116.036 30.543C116.448 30.9543 116.844 31.3828 117.22 31.8279C117.306 31.9303 117.388 32.0382 117.476 32.1388C117.744 32.4422 117.351 31.9612 117.338 31.9506C117.582 32.1511 117.786 32.5617 117.964 32.8252C118.31 33.3382 118.632 33.8677 118.928 34.4117C119.077 34.6865 119.219 34.9649 119.353 35.2476C119.42 35.3886 119.487 35.5301 119.548 35.6738C119.411 35.3532 119.44 35.3969 119.538 35.6974C119.752 36.3553 119.893 37.0118 120.07 37.677C120.176 38.072 120.073 37.6209 120.064 37.5469C120.083 37.7099 120.098 37.8735 120.112 38.037C120.148 38.4742 120.165 38.9123 120.169 39.3509C120.183 40.8021 120.065 42.2553 119.928 43.6989C119.858 44.4374 119.777 45.1748 119.687 45.911C119.664 46.0976 119.555 46.9158 119.636 46.3275C119.574 46.7798 119.508 47.2318 119.44 47.6832C118.927 51.0728 118.256 54.4358 117.586 57.797C117.225 59.6085 118.103 61.708 120.06 62.1537C121.819 62.5545 124.028 61.623 124.415 59.6801C125.721 53.1297 127.218 46.3883 127.251 39.6804C127.285 32.9885 123.592 27.2615 118.411 23.2921C115.897 21.3669 112.952 19.9705 109.881 19.2023C108.087 18.7534 105.957 19.7808 105.526 21.6759C105.108 23.5109 106.076 25.5516 107.999 26.0326Z"
            fill="#F8F7F5" />
        <path
            d="M120.718 46.7099C120.826 48.5517 120.761 50.3918 120.525 52.2216L120.652 51.2801C120.352 53.4746 119.811 55.6191 119.029 57.6914C118.722 58.5047 118.963 59.6973 119.386 60.4205C119.816 61.1551 120.658 61.8558 121.502 62.0481C122.409 62.2546 123.426 62.2099 124.231 61.6911C125.046 61.1655 125.516 60.4807 125.858 59.5745C127.392 55.5087 128.055 51.0471 127.8 46.7099C127.691 44.8638 126.249 43.0791 124.259 43.1682C122.433 43.25 120.601 44.7292 120.718 46.7099L120.718 46.7099Z"
            fill="#F8F7F5" />
        <path
            d="M84.271 126.047C84.0781 126.068 83.8847 126.078 83.6908 126.075C83.2794 126.047 83.3063 126.063 83.7713 126.123C83.5504 126.146 83.1309 125.99 82.9197 125.933C82.2521 125.753 81.606 125.502 80.9553 125.271C79.6848 124.819 78.3939 124.507 77.0657 124.277C74.0696 123.758 71.0506 123.354 68.0354 122.965C67.2029 122.858 66.0955 123.438 65.5317 124.002C64.9175 124.617 64.455 125.625 64.4945 126.507C64.5356 127.423 64.8364 128.373 65.5317 129.011C66.2718 129.691 67.0479 129.921 68.0354 130.048C68.1849 130.068 69.4979 130.24 68.6309 130.124C68.9381 130.165 69.2452 130.208 69.5522 130.251C70.2687 130.35 70.9846 130.454 71.7001 130.56C73.0589 130.762 74.4212 130.959 75.7713 131.213C78.6034 131.747 81.3289 133.363 84.271 133.13C86.113 132.985 87.9022 131.605 87.8119 129.589C87.7315 127.795 86.2484 125.891 84.271 126.047L84.271 126.047Z"
            fill="#F8F7F5" />
        <path
            d="M83.6785 131.395C83.5965 131.399 82.9554 131.344 83.2747 131.402C83.0423 131.36 82.8176 131.29 82.5942 131.215C82.0997 131.047 82.8316 131.354 82.3684 131.117C82.159 131.01 81.9515 130.901 81.747 130.785C81.0003 130.36 80.2692 129.911 79.5132 129.502C77.8873 128.623 76.2048 127.859 74.4894 127.171C73.6275 126.826 72.5075 127.548 72.3115 128.408C72.0784 129.432 72.6251 130.217 73.5481 130.586C73.7688 130.675 73.9893 130.764 74.2085 130.856C73.947 130.746 74.5495 131.005 74.6048 131.029C74.9854 131.198 75.3636 131.371 75.7392 131.55C76.571 131.947 77.3901 132.369 78.1951 132.818C79.9173 133.777 81.6059 135.026 83.6785 134.937C84.6025 134.897 85.493 134.151 85.4489 133.166C85.4075 132.241 84.6695 131.352 83.6785 131.395V131.395Z"
            fill="#F8F7F5" />
        <path
            d="M5.50589 99.6096C5.74794 99.6034 5.98948 99.6161 6.22955 99.6476L5.75889 99.5843C5.97304 99.6137 6.1844 99.6577 6.39242 99.7164C6.62775 99.7902 6.86308 99.8008 7.09841 99.7481C7.33403 99.7374 7.55344 99.6673 7.75666 99.5379C7.96299 99.4266 8.12857 99.2746 8.2534 99.0818C8.40988 98.9108 8.51552 98.7101 8.57029 98.4796L8.63353 98.0089C8.63254 97.6892 8.55197 97.3913 8.39182 97.1151L8.11498 96.7567C7.89408 96.5372 7.63366 96.3854 7.33374 96.3013C6.96331 96.1967 6.58561 96.1506 6.20386 96.1026C5.97223 96.0734 5.73926 96.0619 5.50589 96.068C5.26213 96.0588 5.03475 96.1096 4.82377 96.2205C4.60427 96.2919 4.41434 96.4139 4.25398 96.5866C4.08134 96.747 3.95931 96.937 3.88791 97.1565C3.77706 97.3676 3.72623 97.595 3.73543 97.8388L3.79867 98.3096C3.88279 98.6095 4.03456 98.87 4.25398 99.091L4.6123 99.3679C4.88844 99.5281 5.18631 99.6086 5.50589 99.6096H5.50589Z"
            fill="#F8F7F5" />
        <path
            d="M12.3393 97.9959C12.3177 97.9823 12.2968 97.9676 12.2765 97.952L12.9932 98.5058C12.9235 98.4495 12.8642 98.3872 12.809 98.3167L13.3626 99.0335C13.2267 98.8493 13.1352 98.6401 13.0288 98.4386C12.9766 98.3396 12.9194 98.2435 12.8548 98.1521C12.6546 97.8689 12.4356 97.5935 12.2176 97.3243C12.1801 97.2779 12.1418 97.2325 12.1014 97.1887C12.0251 97.106 11.9431 97.0286 11.8564 96.957C11.5488 96.7031 11.2356 96.4439 10.8994 96.2276C10.7993 96.1632 10.6944 96.106 10.586 96.0569C10.2134 95.8881 9.83532 95.71 9.44316 95.5881L11.0057 101.508L11.0408 101.48L10.3241 102.034C10.5266 101.88 10.7451 101.753 10.9794 101.654L10.1336 102.011C10.2859 101.949 10.4413 101.9 10.6015 101.863C11.0623 101.754 11.4637 101.542 11.8057 101.229C12.1912 100.979 12.4952 100.648 12.7177 100.235C12.9764 99.8289 13.1165 99.39 13.1379 98.9187C13.2433 98.4479 13.2222 97.9772 13.0746 97.5064L12.7177 96.6604C12.4029 96.1282 11.9794 95.7047 11.4474 95.3898L10.6015 95.0328C9.97397 94.8641 9.34643 94.8641 8.71888 95.0328C8.2126 95.15 7.72565 95.3796 7.26233 95.6017C6.79881 95.8239 6.39244 96.1887 5.99804 96.4989C5.5592 96.9408 5.25566 97.4618 5.08742 98.0618C4.91878 98.6894 4.91878 99.3171 5.08742 99.9448C5.25566 100.545 5.5592 101.066 5.99804 101.508C6.43986 101.947 6.96068 102.25 7.56053 102.418C7.63651 102.442 7.71098 102.469 7.78472 102.499L6.93887 102.142C7.1348 102.225 7.3173 102.33 7.48768 102.458L6.77104 101.904C6.93938 102.034 7.08976 102.182 7.22239 102.348L6.66872 101.632C6.83137 101.843 6.94264 102.077 7.06577 102.312C7.19284 102.554 7.35416 102.746 7.52452 102.967C7.63721 103.113 7.76815 103.313 7.91409 103.453C7.93698 103.474 7.96136 103.494 7.98557 103.514C8.22866 103.719 8.50064 103.936 8.76498 104.112C9.17142 104.371 9.61026 104.511 10.0815 104.532C10.5521 104.638 11.0228 104.617 11.4935 104.469C11.9542 104.36 12.3556 104.148 12.6976 103.835C13.0831 103.586 13.3871 103.254 13.6096 102.842L13.9666 101.996C14.1352 101.368 14.1352 100.74 13.9666 100.113L13.6096 99.2665C13.2948 98.7343 12.8714 98.3108 12.3393 97.9959V97.9959Z"
            fill="#F8F7F5" />
        <path
            d="M76.6982 37.7772C76.7068 58.883 76.7154 79.9887 76.7241 101.094C76.7253 104.042 76.7266 106.99 76.7277 109.938C76.7287 112.751 76.7272 115.566 76.3608 118.361L76.8035 115.065C76.5766 116.661 76.2271 118.219 75.6897 119.74L84.3456 111.082L84.1441 111.145L87.4387 110.702L87.2436 110.7L90.5382 111.143L90.3512 111.085L93.3117 112.334L93.1346 112.228L95.6428 114.167C95.5221 114.074 95.4164 113.966 95.3257 113.844L97.2636 116.353C97.121 116.144 97.0117 115.947 96.9071 115.717L98.1564 118.678C96.4484 113.992 95.5143 108.928 94.6521 104.03C93.7696 99.0158 93.0548 93.9672 92.3766 88.9222L92.8193 92.2175C92.2457 87.8952 91.8179 83.5494 91.9868 79.1842C92.1068 76.084 90.5195 72.5821 88.3569 70.419C87.2344 69.2102 85.9049 68.3559 84.3684 67.856C82.8915 67.0799 81.2999 66.724 79.5936 66.7884C76.3884 66.932 73.0642 67.9851 70.8303 70.419C68.5561 72.897 67.332 75.7847 67.2004 79.1842C66.9882 84.6681 67.7429 90.0926 68.4757 95.5128C69.0522 99.7775 69.6596 104.042 70.3556 108.289C71.0558 112.561 71.8781 116.818 72.9932 121.004C74.0026 124.792 75.0866 128.686 77.9509 131.551C81.3099 134.912 86.3516 136.295 90.9348 134.988C93.0247 134.392 94.8211 133.253 96.4035 131.8C98.1219 130.223 98.8945 128.322 99.6444 126.179C99.8389 125.623 100.011 125.06 100.158 124.489C101.434 119.513 101.516 114.331 101.514 109.23L101.508 95.4348C101.504 86.4147 101.501 77.3947 101.497 68.3746C101.493 58.1755 101.489 47.9764 101.485 37.7773C101.483 34.5981 100.103 31.2609 97.8547 29.0121C96.7321 27.8033 95.4026 26.9489 93.8662 26.449C92.3893 25.6729 90.7977 25.317 89.0914 25.3814C85.8862 25.525 82.562 26.5781 80.3281 29.0121C78.1027 31.4368 76.6968 34.4191 76.6982 37.7773L76.6982 37.7772Z"
            fill="#F8F7F5" />
        <path
            d="M71.6156 82.9724C71.7139 82.6866 71.8191 82.4079 71.9337 82.1283L70.3274 85.9355C71.5184 83.2356 73.4681 80.8678 75.1046 78.4299C76.8422 75.8414 78.5388 73.2255 80.1933 70.5832C81.878 67.8929 83.5191 65.1753 85.1159 62.4319C86.2353 60.5087 87.2972 58.6378 88.1647 56.5818C88.2649 56.3443 88.8758 55.1053 89.0583 54.4079L89.3429 52.2895C89.5423 51.4981 89.6375 50.6994 89.6285 49.8937C89.6182 49.2204 89.1875 46.1643 89.0129 45.5466C88.8597 45.0046 87.6589 42.1396 87.3603 41.6292L86.1146 40.0165C85.6806 39.3898 85.2124 38.7913 84.7098 38.221C84.1198 37.6422 82.0564 36.0996 81.3847 35.6529C81.0634 35.4392 80.7265 35.2618 80.3795 35.0904C77.8543 33.8431 75.1238 32.6052 72.3329 32.01C69.3955 31.3835 66.3939 31.2692 63.4283 30.8777L67.6642 31.447C66.985 31.34 66.3401 31.1889 65.7033 30.9277L69.5096 32.5344C69.1119 32.3497 68.7491 32.1382 68.3971 31.8775L71.6219 34.3696C71.3572 34.1487 71.1267 33.9183 70.9097 33.6503L73.4012 36.8758C73.2525 36.6623 73.1333 36.4595 73.0198 36.2254L74.6261 40.0325C74.5174 39.7508 74.4477 39.4876 74.3912 39.1904L74.9604 43.4272C74.733 41.4384 75.0136 39.3246 75.0867 37.3271C75.1633 35.2331 75.24 33.1391 75.3166 31.0451C68.5933 36.1678 61.8699 41.2906 55.1466 46.4133C57.7171 47.4746 60.2922 48.5336 62.934 49.4072C66.8546 50.7037 70.7992 51.3033 74.9078 51.7797C76.1713 51.9263 77.4505 52.014 78.7199 51.9039C80.3157 51.7655 82.7096 51.6013 84.4807 51.006C85.8842 50.5342 87.4964 49.8669 88.8077 49.1791C89.6586 48.7328 90.3687 48.0858 91.1288 47.4984C92.0727 46.769 93.0517 46.1183 93.8276 45.2121C95.0383 43.7982 96.1663 42.2925 97.2425 40.7729C98.0163 39.6804 98.7683 38.5663 99.4154 37.3931C100.378 35.647 101.101 33.7532 101.84 31.9116C102.103 31.2576 102.338 30.5972 102.488 29.9072C102.848 28.2512 103.038 26.4848 103.201 24.801C103.234 24.4618 103.255 24.1239 103.247 23.783C103.208 22.1318 102.891 20.4395 102.624 18.8186C102.559 18.4226 102.479 18.0425 102.365 17.6569C101.217 13.7665 98.5649 10.1939 95.0424 8.13213C93.2135 6.96746 91.2387 6.33704 89.1182 6.24085C87.0002 5.76643 84.8823 5.86132 82.7643 6.5255C78.9087 7.77348 75.1889 10.1633 73.2416 13.8497C71.2575 17.6058 70.404 21.9574 71.6353 26.1305C71.7488 26.5152 71.8338 26.8957 71.8942 27.2922L71.325 23.0554C71.3993 23.7436 71.3848 24.4052 71.2949 25.0912L71.864 20.8544C71.7152 21.7489 71.4523 22.5993 71.1106 23.438L72.7169 19.6308C71.8291 21.6832 70.5687 23.5706 69.2357 25.3586L71.7272 22.133C71.2737 22.7194 70.7923 23.2553 70.2071 23.7133L73.4319 21.2213C73.1221 21.4379 72.8095 21.6164 72.4657 21.7737L76.2721 20.1671C75.7349 20.3762 75.1975 20.5042 74.6267 20.5835L78.8626 20.0142C77.3334 20.1719 75.7829 20.0244 74.2646 19.823L78.5005 20.3923C73.3094 19.6475 68.4353 17.6657 63.6184 15.6769C60.7945 14.9178 57.9705 14.9178 55.1466 15.6769C53.073 16.17 51.2668 17.1209 49.7278 18.5296C47.9932 19.6533 46.6252 21.1439 45.6239 23.0011C44.1825 25.4869 43.4573 28.1683 43.4484 31.0451C43.3696 33.1973 43.2909 35.3494 43.2121 37.5016C43.0849 40.9756 42.8992 44.1911 43.6614 47.664C44.3947 51.0053 46.2447 53.9063 48.534 56.3851C48.6492 56.5099 48.7671 56.6289 48.8913 56.7448C49.8848 57.6718 51.3025 58.6991 52.4159 59.4771C52.7387 59.7027 53.071 59.8866 53.4251 60.0575C54.4864 60.5696 56.6799 61.6175 58.2658 62.0076C59.9969 62.4333 61.8579 62.5657 63.5844 62.7733C64.5764 62.8925 65.5749 62.9395 66.5672 63.056L62.3313 62.4867C63.9816 62.7091 65.5733 63.1355 67.1137 63.7682L63.3074 62.1616C64.021 62.4692 64.7782 62.7799 65.4004 63.252L62.1755 60.76L62.3345 60.9427L58.2367 53.91L58.3295 54.1305L57.7603 49.8937L57.7593 50.1711L58.3284 45.9343L58.238 46.2046L59.8443 42.3974C57.2215 47.4426 54.1037 52.2968 51.0381 57.081C49.5091 59.4673 47.9456 61.8315 46.3483 64.1727C45.5994 65.2703 44.8196 66.3495 44.1035 67.4691C42.7182 69.6349 41.7156 72.0862 40.8857 74.4987C40.2217 76.6171 40.1268 78.7356 40.6011 80.854C40.6973 82.975 41.3276 84.9501 42.492 86.7795C43.4933 88.6368 44.8613 90.1273 46.596 91.2511C48.1349 92.6598 49.9412 93.6107 52.0147 94.1038L56.2506 94.6731C59.1269 94.6641 61.8076 93.9388 64.2929 92.4971C65.3678 91.6664 66.4428 90.8358 67.5177 90.0051C69.4925 88.0165 70.8585 85.6723 71.6155 82.9724L71.6156 82.9724Z"
            fill="#F8F7F5" />
        <path
            d="M105.036 17.7304C104.953 17.7367 104.882 17.7347 104.799 17.7243L105.74 17.8508C105.633 17.8282 105.534 17.7954 105.433 17.7535L106.279 18.1105C105.823 17.8985 105.387 17.6303 104.946 17.387C104.536 17.1606 104.115 16.9462 103.743 16.6594L104.46 17.2131C104.288 17.0736 104.136 16.9198 104 16.7452L104.554 17.462C104.363 17.2069 104.205 16.9305 104.021 16.6713C103.771 16.3202 103.512 15.9566 103.216 15.642C102.918 15.3261 102.551 15.0758 102.196 14.8289C101.79 14.5701 101.351 14.43 100.88 14.4087C100.409 14.3032 99.9385 14.3243 99.4678 14.4719C99.007 14.5815 98.6057 14.7928 98.2637 15.1058C97.8782 15.3556 97.5742 15.6868 97.3517 16.0995C96.9175 16.9215 96.6998 17.9172 96.9947 18.8286L97.3517 19.6746C97.6665 20.2068 98.0899 20.6303 98.622 20.9452C98.6592 20.97 98.6953 20.9963 98.7303 21.0241L98.0137 20.4703C98.1516 20.5847 98.2698 20.7136 98.3798 20.8547L97.8262 20.1379C97.9483 20.3013 98.058 20.4726 98.1688 20.6437C98.4258 21.0405 98.7189 21.4109 99.0135 21.7806C99.2432 22.0688 99.5172 22.2722 99.8103 22.4987C100.108 22.7288 100.394 22.9517 100.719 23.14C101.15 23.39 101.591 23.6243 102.028 23.8651C102.95 24.374 103.943 24.8972 105.036 24.8137C105.524 24.8321 105.978 24.7304 106.4 24.5087C106.839 24.3658 107.219 24.1217 107.54 23.7764C107.885 23.4556 108.129 23.0756 108.272 22.6365C108.494 22.2145 108.595 21.7596 108.577 21.272C108.536 20.3561 108.235 19.4061 107.54 18.7677C106.878 18.1599 105.966 17.6593 105.036 17.7303L105.036 17.7304Z"
            fill="#F8F7F5" />
        <path
            d="M90.9598 5.68555C90.5544 5.49145 90.1813 5.25326 89.8246 4.98011L90.5413 5.5339C89.9443 5.06121 89.4163 4.51495 88.8938 3.96289C88.4574 3.50168 88.0229 3.00268 87.4686 2.67823C86.1806 1.92436 84.5872 2.06011 83.3777 2.88473C81.8255 3.94293 80.3829 5.17069 79.1855 6.62167C78.5716 7.36566 78.1484 8.12712 78.1484 9.12601C78.1484 9.99466 78.5342 11.0323 79.1855 11.6303C79.8604 12.2499 80.7463 12.7099 81.6893 12.6677C82.5755 12.628 83.6045 12.3437 84.1931 11.6303C84.9922 10.662 85.8915 9.78881 86.8823 9.01782L86.1657 9.5716C86.5293 9.29321 86.9013 9.00226 87.3004 8.77626L86.4546 9.13329L86.5408 9.11773H84.6582L84.7401 9.1515L83.1776 8.24068C83.7663 8.76845 84.265 9.39752 84.8402 9.94149C85.5969 10.6571 86.4411 11.3497 87.3855 11.8018C88.2577 12.2193 89.1527 12.4236 90.114 12.1588C90.9353 11.9326 91.8254 11.2974 92.2301 10.5312C92.6643 9.70926 92.882 8.71352 92.5871 7.80215C92.3165 6.96589 91.7825 6.07937 90.9598 5.68554L90.9598 5.68555Z"
            fill="#F8F7F5" />
        <path
            d="M80.1952 29.1314C82.6043 26.7411 85.2546 24.6418 87.9338 22.566L86.1422 23.9505C86.9266 23.3462 87.7237 22.7606 88.5575 22.2259C90.4813 20.9922 92.0098 19.1713 92.6257 16.9344C92.9946 15.7575 93.0473 14.5806 92.7838 13.4037C92.7303 12.2254 92.3802 11.128 91.7333 10.1117C90.5147 8.22117 88.7001 6.55693 86.4429 6.04271C84.1734 5.52569 81.6382 5.64204 79.6217 6.93528C77.185 8.49798 74.9615 10.3919 72.692 12.1846C70.9395 13.5688 69.2618 15.0365 67.6762 16.6097C66.8129 17.4117 66.2028 18.3615 65.8458 19.4592C65.2916 20.5144 65.0374 21.6515 65.0834 22.8706C65.0374 24.0896 65.2916 25.2267 65.8458 26.2819C66.2028 27.3796 66.8129 28.3294 67.6762 29.1314C69.3632 30.6804 71.5781 31.8303 73.9357 31.7247C76.2892 31.6193 78.4918 30.8215 80.1952 29.1314V29.1314Z"
            fill="#F8F7F5" />
        <path
            d="M109.43 127.975C109.216 128.348 109.385 128.074 109.542 127.887C109.148 128.357 109.896 127.752 109.562 127.904C109.48 127.941 108.968 128.244 109.405 128.023C109.821 127.812 109.324 128.034 109.214 128.064C109.027 128.115 108.4 128.164 109.111 128.12C108.904 128.133 108.698 128.149 108.491 128.155C108.074 128.166 107.658 128.149 107.242 128.132C105.218 128.047 103.195 127.936 101.172 127.837C97.1576 127.643 93.1436 127.448 89.1296 127.253C87.2768 127.163 85.506 128.946 85.5887 130.795C85.6781 132.79 87.1447 134.24 89.1296 134.336C93.609 134.554 98.0884 134.771 102.568 134.989C107.057 135.206 112.87 136.202 115.545 131.55C116.469 129.943 115.973 127.602 114.275 126.704C112.587 125.812 110.417 126.259 109.43 127.975L109.43 127.975Z"
            fill="#F8F7F5" />
        <path
            d="M111.022 115.228C111.136 116.478 111.108 117.705 111.006 118.954C110.944 119.706 111.148 118.265 110.988 119.069C110.935 119.33 110.894 119.594 110.839 119.855C110.707 120.476 110.538 121.089 110.364 121.7C110.037 122.84 109.69 123.974 109.487 125.145C109.229 126.638 109.097 128.149 108.991 129.659C108.861 131.511 110.712 133.282 112.532 133.201C114.561 133.11 115.933 131.643 116.073 129.659C116.118 129.015 116.162 128.372 116.227 127.729C116.245 127.546 116.265 127.363 116.286 127.18L116.231 127.574C116.258 127.211 116.345 126.84 116.418 126.485C116.657 125.324 117.028 124.198 117.341 123.057C118.036 120.52 118.343 117.851 118.104 115.228C117.936 113.388 116.596 111.595 114.563 111.686C112.789 111.765 110.842 113.252 111.022 115.228Z"
            fill="#F8F7F5" />
        <path
            d="M117.162 72.9416C117.192 73.2034 117.214 73.4589 117.215 73.7221C117.215 74.0465 117.163 74.383 117.248 73.8716C117.161 74.3918 117.021 74.9022 116.855 75.4023C116.507 76.4505 116.031 77.4499 115.646 78.484C114.777 80.8149 114.718 83.2909 114.632 85.7472C114.612 86.3056 114.576 86.8608 114.533 87.4176L114.498 87.7499C114.546 87.401 114.55 87.354 114.509 87.6088C114.45 87.8649 114.415 88.1286 114.363 88.3868C114.119 89.6203 113.894 90.84 113.729 92.0878C113.663 92.59 113.604 93.093 113.544 93.5959C113.532 93.7048 113.383 94.7137 113.518 93.8589C113.479 94.1074 113.443 94.3562 113.4 94.604C113.313 95.0949 113.208 95.5823 113.07 96.0615C113.001 96.2998 112.92 96.5329 112.84 96.7674C113.038 96.1879 112.837 96.7539 112.705 97.0075C111.848 98.6486 112.23 100.931 113.975 101.853C115.605 102.714 117.905 102.336 118.82 100.583C120.054 98.2192 120.37 95.7547 120.68 93.1428C120.709 92.8913 120.739 92.6397 120.771 92.3885C120.66 93.2471 120.802 92.2416 120.821 92.1336C120.91 91.6132 121.023 91.0973 121.129 90.5801C121.41 89.207 121.612 87.8172 121.686 86.4168C121.747 85.2471 121.736 84.0742 121.834 82.9063C121.856 82.6367 121.931 82.1737 121.843 82.692C121.899 82.3632 121.961 82.0374 122.043 81.7139C122.171 81.2057 122.343 80.7091 122.529 80.2197C123.429 77.8591 124.542 75.552 124.244 72.9416C124.034 71.1072 122.765 69.3075 120.703 69.3999C118.965 69.4778 116.937 70.9702 117.162 72.9416H117.162Z"
            fill="#F8F7F5" />
        <path
            d="M112.867 98.5966C113.01 100.913 112.916 103.207 112.663 105.512C112.629 105.783 112.643 105.685 112.704 105.218C112.679 105.391 112.653 105.563 112.626 105.736C112.586 105.994 112.543 106.252 112.497 106.509C112.397 107.067 112.284 107.622 112.159 108.174C111.898 109.322 111.579 110.455 111.213 111.573C110.636 113.335 111.882 115.519 113.686 115.93C115.632 116.373 117.424 115.343 118.041 113.456C119.599 108.7 120.258 103.593 119.948 98.5966C119.834 96.7511 118.402 94.9656 116.407 95.055C114.587 95.1365 112.744 96.6163 112.867 98.5966H112.867Z"
            fill="#F8F7F5" />
        <path
            d="M107.395 25.4437C106.595 25.3693 107.652 25.5193 107.906 25.5988C108.096 25.6584 108.279 25.7301 108.466 25.7974C107.826 25.5671 108.303 25.7312 108.442 25.8043C109.22 26.2119 109.985 26.636 110.743 27.0791C111.382 27.4523 112.017 27.8324 112.64 28.2309C112.952 28.4304 113.261 28.6337 113.567 28.8433C113.719 28.9478 113.87 29.0534 114.021 29.1608C114.296 29.3578 114.694 29.5773 114.187 29.268C114.783 29.632 115.333 30.2186 115.823 30.7109C116.078 30.9667 116.313 31.238 116.557 31.5031C117.014 31.9979 116.574 31.4671 116.51 31.4155C116.676 31.5483 116.859 31.9005 116.974 32.0772C117.171 32.3799 117.354 32.6924 117.52 33.0135C117.609 33.1866 117.692 33.3622 117.774 33.5388C117.496 32.9396 117.719 33.417 117.761 33.5522C118.044 34.4438 118.259 35.3264 118.418 36.2485C118.286 35.48 118.455 36.6535 118.473 36.8547C118.509 37.2705 118.535 37.6873 118.557 38.1041C118.608 39.0699 118.631 40.0372 118.661 41.0039C118.721 42.9469 118.777 44.8899 118.818 46.8334C118.898 50.6613 118.914 54.4924 118.761 58.3188C118.675 60.4828 118.535 62.6449 118.32 64.8002C118.27 65.3102 118.215 65.8199 118.156 66.3291C118.13 66.5553 118.103 66.7816 118.074 67.0076C118.055 67.1664 117.931 68.0513 118.022 67.4215C117.86 68.5506 117.679 69.6761 117.474 70.7983C117.143 72.6146 117.97 74.7046 119.947 75.155C121.681 75.55 123.947 74.6302 124.303 72.6813C125.851 64.2033 126.078 55.6003 125.903 47.005C125.818 42.8088 125.896 38.5208 125.246 34.3654C124.635 30.4528 122.57 27.0163 119.516 24.5171C117.882 23.1803 116.138 22.0263 114.318 20.9629C112.116 19.6764 109.969 18.5995 107.395 18.3603C105.545 18.1885 103.774 20.112 103.854 21.902C103.947 23.9678 105.414 25.2596 107.395 25.4437L107.395 25.4437Z"
            fill="#F8F7F5" />
        <path
            d="M115.334 121.868C114.964 115.321 115.848 108.809 116.663 102.328C117.479 95.85 118.294 89.3716 119.109 82.8933C119.932 76.3565 120.755 69.8198 121.578 63.2831C121.982 60.0731 122.386 56.8631 122.79 53.6531C123.185 50.5083 123.717 47.342 123.806 44.1693C123.831 43.293 123.815 42.4134 123.733 41.5402C123.564 39.7409 123.364 37.9071 122.957 36.1412C122.682 34.9486 122.2 33.8728 121.723 32.7427C121.264 31.6559 120.848 30.564 120.215 29.5657C118.296 26.5365 116.341 24.6887 113.512 22.602C111.689 21.2579 109.428 20.259 107.197 19.8817C105.549 19.3651 103.902 19.2913 102.255 19.6603C100.605 19.7351 99.0695 20.2255 97.647 21.1313C95.0762 22.636 92.6245 25.5843 91.9515 28.5394C91.2289 31.7126 91.3853 35.2745 93.2009 38.0911C94.8481 40.6467 97.4826 43.2594 100.607 43.7878C101.185 43.8855 101.728 44.0404 102.271 44.2603L99.3102 43.0107C99.9158 43.2805 100.471 43.6118 101.001 44.0088L98.4932 42.0706C99.1533 42.5953 99.7278 43.1893 100.245 43.8552L98.3067 41.3465C98.866 42.1045 99.3234 42.91 99.6959 43.775L98.4466 40.8139C98.8865 41.9012 99.1531 43.0238 99.3168 44.1843L98.8741 40.889C99.1801 43.418 98.9594 45.9479 98.6545 48.4658C98.3319 51.1301 97.9858 53.7918 97.6506 56.4546C96.9895 61.7073 96.3284 66.96 95.6673 72.2127C94.3305 82.834 92.9919 93.455 91.657 104.076C90.9152 109.978 90.2108 115.91 90.5474 121.868C90.7332 125.156 91.8033 128.259 94.1773 130.633C95.2998 131.842 96.6293 132.696 98.1657 133.196C99.6427 133.972 101.234 134.328 102.941 134.264C106.146 134.12 109.47 133.067 111.704 130.633C113.857 128.288 115.519 125.153 115.334 121.868Z"
            fill="#F8F7F5" />
        <path
            d="M87.7043 3.48609C87.8228 3.51333 87.8327 3.51447 87.7342 3.48952C87.8378 3.53663 87.8448 3.53665 87.7551 3.48958C87.6947 3.44796 87.6328 3.40953 87.573 3.36699C87.4227 3.26016 87.2785 3.16215 87.1111 3.08293C86.9349 2.99953 86.7535 2.93088 86.5882 2.82555L86.6556 2.87824C86.5874 2.80622 86.5864 2.81299 86.6526 2.89852C86.6027 2.81114 86.6019 2.82008 86.6502 2.92536C86.6645 2.99443 86.6617 3.06279 86.6418 3.13043C86.7228 2.69196 86.5574 2.26659 86.1293 2.08589C85.7003 1.9048 85.2842 2.08462 85.0239 2.44816C85.0101 2.46736 84.8539 2.65511 84.977 2.51387C84.9268 2.57153 84.8792 2.63126 84.8282 2.68836C84.7434 2.78327 84.6548 2.87474 84.5633 2.96317C84.4532 3.06957 84.3386 3.17133 84.221 3.26932C84.205 3.28266 84.0434 3.41443 84.1307 3.3444C84.2096 3.28122 84.0262 3.42231 84.005 3.43777C83.5351 3.78049 83.034 4.07706 82.5332 4.37165C82.134 4.60649 81.9561 5.18039 82.2156 5.58307C82.4749 5.98526 82.9996 6.152 83.4268 5.90072C84.6055 5.20735 85.7448 4.47003 86.5526 3.34194L84.9346 2.65968C84.7811 3.49045 85.2448 4.16799 85.9888 4.50995C86.2361 4.62363 86.4573 4.73813 86.6794 4.89606C86.9868 5.11462 87.3226 5.25196 87.7043 5.25693C88.1675 5.26298 88.6107 4.84537 88.5895 4.37152C88.5678 3.88662 88.2006 3.49258 87.7043 3.4861L87.7043 3.48609Z"
            fill="#F8F7F5" />
        <path
            d="M69.6413 17.0962C69.9322 16.8297 70.2312 16.5723 70.5394 16.326C70.5756 16.297 70.6121 16.2683 70.6485 16.2395C70.7252 16.1787 70.6878 16.2029 70.6343 16.2499C70.7122 16.1815 70.8013 16.1231 70.8847 16.0617C71.0434 15.9446 71.2041 15.8302 71.3667 15.7186C72.0176 15.2722 72.6991 14.8726 73.4045 14.5188C73.8194 14.3107 73.9697 13.6915 73.7221 13.3074C73.4487 12.8832 72.9546 12.7672 72.511 12.9897C71.0121 13.7415 69.6256 14.7117 68.3894 15.844C68.0469 16.1576 68.0476 16.7824 68.3894 17.0961C68.7556 17.4324 69.276 17.4307 69.6413 17.0961L69.6413 17.0962Z"
            fill="#F8F7F5" />
        <path
            d="M104.038 18.2557C104.311 18.3202 104.577 18.4068 104.836 18.5148L104.624 18.4256C104.874 18.5314 105.115 18.6564 105.345 18.8002C105.536 18.9197 105.812 18.9486 106.027 18.8894C106.232 18.8328 106.455 18.674 106.556 18.4825C106.664 18.277 106.719 18.0281 106.645 17.8002C106.573 17.5769 106.44 17.397 106.238 17.2711C105.71 16.9407 105.115 16.6916 104.508 16.5481C104.28 16.4941 104.032 16.5171 103.826 16.6374C103.643 16.7448 103.467 16.9554 103.419 17.1665C103.368 17.3932 103.379 17.6476 103.509 17.8488C103.631 18.0388 103.812 18.2022 104.038 18.2557Z"
            fill="#F8F7F5" />
        <path
            d="M69.0187 94.8483C54.8327 94.5882 40.6453 94.4047 26.4573 94.2977C24.0197 94.2057 21.746 94.7141 19.6361 95.8228C17.4412 96.537 15.5419 97.7575 13.9383 99.4843C12.2118 101.088 10.9916 102.988 10.2776 105.183C9.16907 107.294 8.6608 109.568 8.75275 112.006L9.38517 116.714C10.2264 119.713 11.7441 122.318 13.9383 124.528L17.5215 127.297C20.2829 128.899 23.2615 129.704 26.4573 129.714C40.6453 129.821 54.8327 130.005 69.0187 130.265C71.4563 130.357 73.73 129.849 75.8399 128.74C78.0348 128.026 79.9341 126.805 81.5377 125.078C83.2642 123.474 84.4845 121.575 85.1985 119.379C86.307 117.269 86.8152 114.995 86.7233 112.557L86.0909 107.849C85.2497 104.849 83.732 102.244 81.5377 100.035L77.9546 97.266C75.1932 95.6641 72.2146 94.8582 69.0187 94.8483Z"
            fill="#F8F7F5" />
        <path
            d="M44.7352 112.105C44.1765 101.269 43.6178 90.4336 43.0591 79.5978C37.1576 85.5006 31.2561 91.4034 25.3546 97.3061C28.2763 97.3071 31.1866 97.524 34.0831 97.9012L29.3765 97.2686C41.9186 98.9547 53.8237 103.517 66.214 105.932C68.5673 106.669 70.9205 106.775 73.2738 106.248C75.63 106.141 77.8242 105.44 79.8564 104.146C81.9196 103.034 83.5753 101.513 84.8237 99.5854C86.3886 97.8751 87.4449 95.8677 87.9927 93.5633L88.6251 88.8557C88.6151 85.6592 87.8094 82.68 86.2079 79.918L83.4395 76.3341C81.2305 74.1393 78.6263 72.6213 75.6271 71.78C63.6593 69.4477 52.1526 65.0954 40.0718 63.2973C35.1898 62.5707 30.2976 61.8912 25.3546 61.8895C22.917 61.7975 20.6433 62.3059 18.5334 63.4146C16.3385 64.1288 14.4392 65.3493 12.8356 67.0761C9.75095 70.4371 7.40759 74.8951 7.65006 79.5978C8.20875 90.4336 8.76744 101.269 9.32613 112.105C9.23418 114.543 9.74245 116.817 10.8509 118.928C11.5649 121.123 12.7852 123.023 14.5117 124.627C16.1153 126.354 18.0146 127.574 20.2095 128.288C22.3194 129.397 24.5931 129.905 27.0307 129.813L31.7372 129.181C34.7365 128.34 37.3406 126.822 39.5497 124.627C42.6343 121.266 44.9777 116.808 44.7352 112.105Z"
            fill="#F8F7F5" />
        <path
            d="M66.5481 37.4504C66.6179 37.2694 66.7226 36.8518 66.9389 36.7335C66.7295 36.288 67.1134 36.1976 67.3716 36.0027C67.574 35.8565 67.239 35.2719 67.8462 35.4946C67.8741 35.3971 67.9997 35.3902 67.7903 35.1604C67.8252 35.0073 67.8531 34.6524 68.3208 34.889C68.4115 34.5479 68.565 34.2347 68.7464 33.9355L68.8721 33.7336L68.9279 33.657C68.9628 33.6083 69.0117 33.5526 69.0535 33.5039C68.9837 33.4065 68.9558 33.3508 68.8232 33.2046C68.6348 32.9958 68.4394 32.8079 68.237 32.6617C68.0555 32.4668 67.9788 32.2301 67.902 31.896C67.8671 31.5967 67.1343 31.5689 67.0994 31.1234C67.0087 31.1931 66.9319 31.2209 66.918 31.1861C65.6758 29.7522 64.3707 28.395 63.0657 27.0517C62.4166 26.3834 61.7677 25.7152 61.1186 25.054L60.1556 24.0587C59.674 23.5436 59.1925 23.0355 58.7109 22.5205C59.2972 22.0541 59.8764 21.5877 60.4487 21.1284C60.8395 20.829 61.2372 20.5367 61.6281 20.2374C65.3129 16.799 69.2628 13.4789 73.283 10.2284C77.5115 6.84567 81.755 3.45596 85.907 0.128906C87.0939 1.08943 88.2384 2.01517 89.3757 2.9409C93.4237 6.49069 97.9737 9.88733 102.077 13.1796C103.187 14.3976 104.89 15.2816 105.937 16.458C106.201 16.8199 107.235 16.8686 106.802 17.9266C107.172 17.8709 106.16 18.7966 106.516 18.1981C104.311 17.2862 97.1359 11.3003 94.68 9.17737C93.1092 8.03589 91.5534 6.85262 89.9968 5.64152C89.222 5.02901 88.4473 4.42346 87.6732 3.80399C87.0869 3.33068 86.4934 2.85737 85.907 2.38407C84.6231 3.40724 83.3321 4.43738 82.0481 5.46751C80.5688 6.6299 79.0823 7.79923 77.6093 8.95467C74.6505 11.2725 71.7122 13.5624 68.8651 15.8594C67.9369 16.5832 67.0925 17.4811 66.0806 18.2537C65.1315 19.263 64.3219 19.8198 63.0657 20.6968C62.8633 21.0031 62.6679 21.2397 62.4865 21.4485C62.4307 21.5529 62.2631 22.061 61.8444 21.713C61.7188 21.88 61.8933 22.4439 61.5025 22.2907C61.2443 22.1933 61.2233 22.8476 60.9093 22.4299C60.7208 22.4369 60.679 22.604 60.7487 22.6666C60.8883 22.7223 60.979 22.7362 60.986 22.771C60.986 22.7919 60.979 22.8197 60.9511 22.8685L60.9023 22.9729C60.9023 23.0285 60.9023 23.1051 60.8813 23.1817C62.2492 23.7524 62.982 25.0401 63.7356 26.2024C63.938 26.0285 64.1265 26.105 63.8613 26.3625C64.9639 27.9286 66.918 28.924 67.8811 30.7407C68.6418 31.1861 69.0954 31.8265 69.4095 32.4042C69.6467 32.1814 69.9329 32.3207 69.6188 32.6826C69.6398 33.0236 69.9468 33.1489 70.3865 33.4203C70.3515 33.7405 70.1841 34.2417 69.7305 34.2069C69.3955 34.708 69.235 35.3623 68.7255 35.7451C68.558 35.7938 68.6627 36.0723 68.2929 35.9748C68.1951 36.0583 68.4394 36.3437 68.0695 36.1558C67.8671 36.6151 67.7973 36.9771 67.2739 36.9005C67.2739 36.9284 67.2321 36.9284 67.1762 36.9005C67.5252 37.1999 67.2181 37.9377 66.7295 37.6453C66.8482 37.8054 66.7784 37.9168 66.7295 37.9237C66.1922 37.868 66.0178 37.1163 66.5481 37.4713V37.4504H66.5481ZM106.683 18.1772L106.572 18.3164C106.572 18.3164 106.655 18.2467 106.711 18.1772H106.683Z"
            fill="black" />
        <path
            d="M66.8195 38.6407C66.7148 38.9191 66.4914 39.5107 66.2123 39.7196C66.3449 40.2624 65.8704 40.4712 65.5144 40.7845C65.2423 41.0211 65.4586 41.7311 64.8166 41.5362C64.7538 41.6754 64.6072 41.7033 64.7817 41.9677C64.6979 42.1766 64.5514 42.6499 64.0768 42.4132C63.2742 44.1533 61.5784 45.5523 60.734 46.8678C60.4757 47.1741 60.1827 47.3621 59.7709 47.5848C59.401 47.7448 59.2963 48.6636 58.752 48.8794C58.8288 48.9699 58.8567 49.0534 58.8148 49.0743C54.0553 54.385 49.6446 59.8629 44.7665 64.7004C39.3021 71.0344 33.2514 77.187 26.7891 82.9365C23.551 85.8039 20.2151 88.5742 16.7048 91.115C14.9461 92.3815 13.1456 93.5856 11.2613 94.6644C9.37007 95.7227 7.40202 96.7179 5.16183 97.1981L4.50582 97.2888C4.43604 97.303 4.44301 97.2888 4.42208 97.2959H4.30344C4.19875 97.2959 4.14293 97.2817 4.0522 97.2541C4.03825 97.2541 3.98241 97.2265 4.00335 97.2541L4.03127 97.303L4.09408 97.4071L4.16386 97.5183L4.39416 97.8455C4.91757 98.5836 5.4689 99.3075 6.00627 100.045C7.10194 101.5 8.21857 102.955 9.3421 104.396C11.6033 107.263 13.8434 110.11 16.0069 112.859C17.2909 114.912 19.3008 116.869 20.5291 118.838C20.8362 119.409 22.0784 120.007 21.5201 121.073C21.9668 121.191 20.7175 121.804 21.1642 121.253C18.5262 119.012 10.1307 108.029 7.31828 104.131C6.32729 102.92 5.34328 101.695 4.36625 100.442C3.88471 99.8083 3.39619 99.1751 2.90768 98.5418C2.49593 97.9986 2.07721 97.4 1.65848 96.8085L1.02341 95.9175L0.702384 95.4648C0.611659 95.326 0.569784 95.2353 0.5 95.117L1.93763 95.3883L2.71926 95.535L2.91466 95.5697H3.3613L3.9545 95.5902H4.24761L4.39416 95.5697L4.96642 95.4719C5.73409 95.2913 6.50176 95.0264 7.26943 94.7133C8.79078 94.073 10.2703 93.2449 11.7149 92.3538C14.6042 90.5582 17.3677 88.5047 20.0476 86.3613C25.4143 82.0667 30.4879 77.4377 35.2613 72.7606C36.5106 71.5494 37.6691 70.1642 39.016 68.8418C40.3071 67.2618 41.3678 66.2804 43.0008 64.7212C43.273 64.2688 43.5382 63.9068 43.7825 63.5797C43.8662 63.4335 44.1035 62.7515 44.599 63.0089C44.7665 62.7515 44.592 62.1389 45.0666 62.1737C45.4016 62.1737 45.3946 61.4498 45.918 61.6517C46.8461 61.0461 46.9369 59.5775 48.207 59.4383C49.1073 57.559 50.7892 56.2087 52.3106 54.8653C52.1221 54.6844 52.2408 54.4129 52.5199 54.6495C54.5856 52.7285 56.0233 49.9444 58.3332 48.0581C58.9474 46.9444 59.7639 46.1301 60.4897 45.5176C60.2315 45.3226 60.4409 44.8911 60.8247 45.1696C61.6203 44.9399 61.4179 43.332 62.2344 43.499C62.7229 42.8726 63.1625 41.9399 63.8465 41.3762C64.0559 41.2856 64.014 40.9376 64.4187 41.0002C64.5583 40.868 64.356 40.5409 64.7328 40.7288C65.1027 40.0815 65.2562 39.6012 65.8564 39.5873C65.8633 39.5525 65.9122 39.5455 65.975 39.5595C65.654 39.2323 66.1356 38.2091 66.638 38.4458C66.5334 38.2649 66.6101 38.0978 66.6659 38.063C66.973 37.9934 67.1684 38.1743 67.1964 38.3901C67.2243 38.6059 67.0986 38.7799 66.8195 38.6268V38.6407V38.6407ZM21.3526 121.344L21.2131 121.455C21.2131 121.455 21.3177 121.413 21.3805 121.358L21.3526 121.337V121.344Z"
            fill="black" />
        <path
            d="M47.4354 98.3255C47.4354 98.4162 47.4703 98.6457 47.3307 98.6733C47.6378 98.9871 47.3447 98.9588 47.1911 99.0218C47.0725 99.0707 47.5191 99.495 46.9469 99.2237C46.9469 99.2789 46.8561 99.2513 47.0934 99.439C47.1143 99.5226 47.1911 99.7387 46.7374 99.4879C46.8282 100.191 46.1094 100.49 46.0326 100.978C45.9698 101.075 45.8303 101.103 45.6139 101.11C45.4045 101.096 45.7046 101.576 45.3836 101.541C45.4743 101.611 45.5301 101.667 45.5092 101.667C44.1833 103.295 43.1643 105.167 41.5732 106.483C40.1216 108.536 38.1885 110.249 36.1856 111.801C34.1757 113.353 32.068 114.752 30.107 116.241C28.1041 117.453 26.2408 119.068 24.4054 120.411C23.6865 120.62 23.2469 121.406 22.556 121.587C22.3396 121.601 22.3955 122.311 21.6418 121.504C21.7115 121.789 20.9927 120.641 21.4324 121.176C21.8442 120.049 25.2079 117.808 26.4013 117.07C28.2088 115.406 30.2256 113.945 32.2565 112.518C34.2873 111.091 36.3321 109.692 38.1396 108.133C38.5444 107.826 38.8026 107.339 39.2353 107.005C39.5493 106.483 39.8843 106.24 40.4217 105.857C40.4426 105.669 40.4984 105.543 40.5473 105.432C40.5473 105.369 40.4705 105.028 40.8823 105.369C40.9032 105.272 40.5682 104.827 40.8962 105.014C41.1196 105.133 40.8544 104.681 41.2731 104.994C41.6779 104.945 41.2033 104.082 42.0268 104.437C41.9361 103.595 42.5921 103.365 43.1364 103.059C42.9271 102.891 42.9131 102.773 43.1992 102.996C43.5482 102.753 43.7087 102.342 43.9041 101.952C44.0786 101.548 44.281 101.172 44.7485 100.978C44.7485 100.546 45.0137 100.323 45.2998 100.184C45.0207 100.01 45.0067 99.8357 45.4115 100.086C45.914 100.17 45.1045 99.2655 45.7884 99.5715C45.907 99.3767 45.8582 98.9935 46.1513 98.8823C46.2769 98.8894 46.1024 98.7016 46.4443 98.8405C46.5002 98.8129 46.2141 98.5833 46.577 98.7852C46.6049 98.555 46.5491 98.3531 47.0166 98.5132C47.0166 98.4998 47.0445 98.5069 47.1004 98.5345C46.7235 98.2837 46.7514 97.9076 47.2469 98.1867C47.1004 98.0684 47.1283 98.0195 47.1632 98.0195C47.6308 98.1654 48.0006 98.6457 47.4493 98.3255H47.4354H47.4354ZM21.4463 121.288L21.3416 121.142C21.3416 121.142 21.3975 121.232 21.4463 121.302V121.288Z"
            fill="black" />
        <path
            d="M89.8899 28.0405C89.904 28.0892 89.9742 28.2354 89.8693 28.1867C90.1484 28.5068 89.9253 28.3537 89.8276 28.3189C89.7433 28.2841 90.1484 28.7435 89.681 28.3189C89.6944 28.3537 89.6179 28.2911 89.8205 28.5068C89.8481 28.5625 89.9387 28.7226 89.5691 28.3676C89.7504 28.8131 89.2971 28.66 89.3248 28.9106C89.2971 28.9384 89.1994 28.8827 89.0528 28.7853C88.9062 28.6739 89.1994 29.1124 88.9756 28.9384C89.0528 29.0289 89.0946 29.0845 89.0804 29.0776C88.7455 29.2377 88.5011 29.5022 88.2497 29.7597C87.999 30.0173 87.6846 30.226 87.3291 30.3165C86.7356 31.0474 85.7449 31.4998 84.6423 31.3954C84.3696 31.3606 84.0906 31.2841 83.8257 31.2214C83.5602 31.117 83.3024 30.9847 83.0651 30.8455C82.597 30.5114 82.1927 30.1077 81.9136 29.6344C81.8293 29.3769 81.7316 29.1402 81.6898 28.8827L81.5921 28.5068C81.5716 28.3815 81.5645 28.2563 81.5503 28.124C81.5362 27.9987 81.5227 27.8665 81.5156 27.7342L81.5432 27.3514C81.5574 27.2262 81.5645 27.0939 81.5921 26.9756C81.6275 26.8573 81.6693 26.7389 81.7111 26.6275C81.8853 26.537 81.8995 26.37 81.9554 26.2239C82.0113 26.0777 82.0666 25.9245 82.2486 25.8828C82.3739 25.8897 81.983 25.3886 82.8767 26.022C82.6813 25.8201 83.728 26.6902 83.1763 26.2725C83.3718 26.6275 83.2535 26.9477 83.2046 27.2818C83.1416 27.435 83.1274 27.5951 83.0856 27.7342C83.0297 27.8734 83.0297 27.9987 83.0021 28.0892C83.3371 28.66 83.5601 29.0358 83.9928 29.363C84.4184 29.6762 85.1238 29.8989 85.8072 29.7041C85.9609 29.7041 86.0444 29.4743 86.2052 29.4534C86.2958 29.2168 86.4283 29.2586 86.6591 29.2725C86.645 29.1472 86.6521 29.0776 86.6591 29.0219C86.6521 28.9801 86.5543 28.6878 86.8263 29.1542C86.8263 29.0915 86.5749 28.6043 86.7845 28.9106C86.924 29.1124 86.708 28.66 86.987 29.0985C87.2101 29.2725 86.7986 28.4373 87.322 29.0985C87.1471 28.5068 87.4686 28.6878 87.7618 28.7574C87.601 28.5417 87.5734 28.4581 87.7894 28.7574C88.1591 28.7992 87.9013 28.0614 88.4523 28.298C88.3687 28.0266 88.5082 28.0335 88.6895 28.0962C88.4664 27.8596 88.4175 27.7481 88.7454 28.0962C89.1151 28.3885 88.3758 27.4698 88.9133 27.9778C88.9621 27.9152 88.8573 27.6855 89.0528 27.7621C89.1434 27.8247 88.9827 27.6368 89.2553 27.8804C89.29 27.8874 89.0386 27.6298 89.3389 27.9082C89.3177 27.7899 89.2412 27.6577 89.6108 27.964C89.6038 27.95 89.6321 27.9709 89.6739 28.0126C89.346 27.6925 89.3042 27.5045 89.7157 27.8804C89.5832 27.7481 89.5967 27.7273 89.625 27.7481C90.0018 28.0405 90.358 28.4859 89.8969 28.0544L89.8899 28.0405H89.8899ZM83.0928 26.196L83.2323 26.3074L83.0857 26.1821L83.0928 26.196Z"
            fill="black" />
        <path
            d="M78.6392 25.1442C78.6463 25.1928 78.7023 25.353 78.6045 25.2903C78.8552 25.6314 78.6463 25.4644 78.5486 25.4226C78.4714 25.3878 78.8205 25.882 78.402 25.4156C78.4091 25.4504 78.339 25.3808 78.5203 25.6244C78.5415 25.6871 78.618 25.8541 78.283 25.4643C78.4162 25.9377 77.9622 25.7358 77.9481 25.9933C77.9134 26.0212 77.8227 25.9586 77.6903 25.8402C77.5579 25.7149 77.788 26.1882 77.5784 25.9864C77.6414 26.0838 77.6761 26.1465 77.669 26.1395C77.3065 26.2787 77.0062 26.5154 76.6783 26.7311C76.3504 26.933 75.98 27.1279 75.5615 27.0931C75.1359 27.3854 74.5842 27.5455 73.9915 27.4898C73.398 27.4411 72.784 27.1488 72.3442 26.6893C71.8974 26.23 71.6254 25.6383 71.5348 25.0537C71.4441 24.4621 71.5071 23.8913 71.6396 23.3623C72.107 22.4366 72.6232 21.5387 73.3838 20.9679C73.7542 21.0167 73.8307 20.5155 74.194 20.6199C74.3052 20.6895 74.1798 20.07 74.6819 21.0445C74.6054 20.78 75.1359 22.0259 74.8356 21.3995C74.8285 21.7823 74.5424 22.0677 74.2634 22.3252C73.9702 22.5688 73.677 22.8124 73.517 22.9377C73.3286 23.6546 73.2025 24.1767 73.2514 24.7335C73.2932 25.2694 73.6423 25.8541 74.2981 26.0003C74.4383 26.0421 74.5842 25.9028 74.7308 25.9306C74.8845 25.7567 74.9893 25.8124 75.1918 25.8889C75.2124 25.7706 75.2336 25.7079 75.2548 25.6523C75.2548 25.6105 75.2336 25.3112 75.3802 25.8262C75.3944 25.7706 75.2754 25.2346 75.3944 25.5897C75.4779 25.8193 75.3802 25.3251 75.5409 25.8193C75.7222 26.0351 75.4985 25.1302 75.8618 25.8959C75.8058 25.2625 76.0848 25.52 76.3639 25.6453C76.2456 25.4087 76.2243 25.3181 76.3922 25.6453C76.7619 25.7567 76.6082 24.9632 77.1251 25.2694C77.0826 24.998 77.2222 25.0189 77.39 25.0955C77.1945 24.831 77.1598 24.7196 77.453 25.0955C77.788 25.4226 77.1599 24.4342 77.6414 24.998C77.6974 24.9493 77.6131 24.6917 77.8015 24.7892C77.8857 24.8588 77.7462 24.6569 77.9969 24.9214C78.0323 24.9354 77.8085 24.65 78.0812 24.9562C78.0812 24.8379 78.0111 24.6917 78.3531 25.0258C78.3531 25.0119 78.3673 25.0328 78.4162 25.0815C78.123 24.7335 78.0946 24.5316 78.4714 24.9492C78.3531 24.8031 78.3673 24.7892 78.3949 24.8101C78.7441 25.1372 79.0578 25.6105 78.6322 25.1372L78.6392 25.1442ZM74.808 21.2951L74.8845 21.4621L74.808 21.2881V21.2951Z"
            fill="black" />
        <path
            d="M98.1051 29.3696C98.098 29.4601 98.1122 29.6828 97.9727 29.6968C98.2517 30.0308 97.9585 29.9752 97.8048 30.0239C97.6795 30.0517 98.0846 30.532 97.5541 30.1909C97.5541 30.2466 97.4628 30.2118 97.6724 30.4206C97.6795 30.5042 97.7283 30.7199 97.3098 30.4137C97.2886 31.0958 96.5698 31.2837 96.3814 31.7153C96.2978 31.7918 96.1583 31.7849 95.9487 31.7431C95.7532 31.6805 95.9487 32.2164 95.6484 32.1051C95.7256 32.1955 95.7603 32.2582 95.7391 32.2582C94.106 33.4484 92.5848 34.8265 90.694 35.4252C88.6771 36.7337 86.2763 37.4576 83.8685 37.8334C81.4536 38.2163 79.0182 38.2789 76.6592 38.3416C74.4263 38.1606 72.0674 38.2581 69.8759 38.0005C69.2409 37.6664 68.3965 37.9239 67.7823 37.5341C67.6427 37.395 67.1054 37.8822 67.2589 36.7894C67.0844 37.0261 67.545 35.7453 67.3845 36.4205C67.908 36.2186 69.0524 36.3092 70.2668 36.4205C71.4739 36.5388 72.7373 36.685 73.386 36.7685C75.6756 36.6015 77.9857 36.5875 80.2887 36.4483C82.591 36.323 84.901 36.0864 87.0575 35.4878C87.5185 35.3764 87.937 35.0841 88.4257 34.9449C88.886 34.6038 89.2627 34.5273 89.8704 34.395C89.9539 34.2419 90.0446 34.1444 90.1218 34.054C90.1423 33.9983 90.177 33.6572 90.4426 34.1236C90.4985 34.04 90.3378 33.511 90.5679 33.8104C90.7287 33.9983 90.638 33.4971 90.9171 33.9426C91.308 34.0609 91.133 33.0865 91.7612 33.706C91.9496 32.9333 92.5707 32.9264 93.1712 32.8429C93.0246 32.6202 93.0458 32.5087 93.2477 32.8081C93.6315 32.6967 93.8829 32.3626 94.1549 32.0703C94.4063 31.7501 94.6718 31.4577 95.1534 31.409C95.2228 30.9914 95.516 30.8592 95.8162 30.8035C95.579 30.5738 95.5925 30.4137 95.9345 30.7408C96.409 30.9357 95.739 29.8986 96.3601 30.3302C96.5003 30.1631 96.4933 29.8081 96.7999 29.7594C96.9189 29.7872 96.7652 29.5784 97.0789 29.7594C97.1349 29.7385 96.8771 29.481 97.2121 29.7246C97.2609 29.5019 97.2121 29.307 97.6582 29.5158C97.6582 29.5019 97.6865 29.5158 97.7425 29.5437C97.3863 29.2513 97.4351 28.9103 97.9096 29.2235C97.7701 29.0912 97.7984 29.0494 97.8402 29.0564C98.2935 29.2374 98.6284 29.7385 98.1051 29.3766V29.3696H98.1051ZM67.3287 36.504L67.3775 36.33C67.3775 36.33 67.3357 36.4274 67.3147 36.511H67.3287V36.504Z"
            fill="black" />
        <path
            d="M116.625 135.543C116.52 135.585 116.297 135.738 116.178 135.634C116.046 136.058 115.885 135.794 115.711 135.696C115.578 135.613 115.425 136.225 115.334 135.599C115.278 135.634 115.236 135.536 115.202 135.836C115.124 135.898 114.95 136.072 114.915 135.557C114.231 136.002 113.436 135.578 112.857 135.773C112.71 135.773 112.584 135.669 112.424 135.494C112.291 135.314 112.005 135.829 111.816 135.55C111.816 135.669 111.796 135.738 111.775 135.724C109.137 135.55 106.541 135.954 104 135.724C97.8172 136.497 91.2714 135.912 85.0458 135.989C82.0941 135.787 78.9817 136.009 76.0994 136.037C75.2056 135.794 74.1731 136.177 73.3219 135.919C73.0846 135.808 72.6236 136.413 72.4423 135.32C72.3028 135.592 72.4147 134.241 72.4699 134.931C73.7262 134.248 78.8492 134.381 80.6282 134.478C86.8184 133.901 93.3018 134.478 99.4084 134.541C100.057 134.569 100.721 134.401 101.425 134.443C102.179 134.263 102.716 134.339 103.554 134.45C103.749 134.339 103.91 134.283 104.063 134.234C104.126 134.193 104.37 133.901 104.426 134.436C104.538 134.388 104.657 133.838 104.775 134.207C104.859 134.45 105.054 133.95 105.131 134.472C105.529 134.736 105.954 133.81 106.31 134.652C107.05 134.047 107.846 134.388 108.592 134.625C108.592 134.36 108.704 134.276 108.704 134.638C109.744 134.903 110.875 134.151 111.963 134.687C112.424 134.436 112.857 134.541 113.198 134.708C113.198 134.381 113.366 134.27 113.373 134.75C113.624 135.216 114.043 134.04 114.183 134.785C114.476 134.778 114.852 134.534 115.173 134.729C115.25 134.84 115.341 134.59 115.411 134.952C115.481 134.979 115.537 134.625 115.564 135.035C115.836 134.938 116.018 134.785 116.151 135.265C116.165 135.251 116.178 135.285 116.185 135.349C116.214 134.889 116.639 134.722 116.66 135.285C116.695 135.098 116.765 135.091 116.786 135.125C116.932 135.599 116.646 136.162 116.639 135.529L116.625 135.543L116.625 135.543ZM72.4076 135.049V134.868C72.4076 134.868 72.3934 134.972 72.3934 135.063L72.4076 135.049Z"
            fill="black" />
        <path
            d="M72.1812 131.951C72.0764 131.993 71.8533 132.139 71.7343 132.035C71.5877 132.453 71.434 132.188 71.2668 132.091C71.1411 132.007 70.9667 132.613 70.8899 131.986C70.8341 132.014 70.7992 131.923 70.7503 132.216C70.6666 132.271 70.4921 132.445 70.4642 131.931C69.7663 132.362 68.9777 131.923 68.3915 132.104C68.245 132.104 68.1193 131.993 67.9658 131.819C67.8332 131.638 67.5401 132.146 67.3517 131.86C67.3446 131.979 67.3238 132.049 67.3098 132.035C64.6648 131.812 62.0408 132.167 59.5005 131.889C53.2685 132.536 46.7014 131.833 40.4414 131.784C37.4824 131.52 34.3489 131.687 31.4527 131.659C30.5594 131.394 29.5196 131.756 28.6612 131.492C28.424 131.374 27.9493 131.972 27.7889 130.879C27.6493 131.151 27.7819 129.801 27.8238 130.49C29.1009 129.835 34.2442 130.065 36.0308 130.197C42.2629 129.738 48.7671 130.448 54.9015 130.629C55.5505 130.67 56.2275 130.517 56.9253 130.573C57.686 130.406 58.2234 130.497 59.0608 130.622C59.2562 130.51 59.4238 130.461 59.5772 130.42C59.6401 130.378 59.8913 130.086 59.9402 130.629C60.0519 130.58 60.1844 130.037 60.2961 130.406C60.3798 130.65 60.5822 130.155 60.645 130.677C61.0359 130.949 61.4825 130.03 61.8244 130.879C62.5782 130.288 63.3668 130.643 64.1135 130.9C64.1204 130.636 64.2321 130.552 64.2252 130.914C65.265 131.2 66.4165 130.469 67.4982 131.032C67.9658 130.789 68.3985 130.9 68.7404 131.074C68.7404 130.747 68.9149 130.643 68.9219 131.116C69.1662 131.582 69.6058 130.42 69.7384 131.165C70.0385 131.165 70.4153 130.928 70.7363 131.13C70.8062 131.241 70.9038 130.998 70.9736 131.36C71.0434 131.394 71.1062 131.032 71.1272 131.443C71.3993 131.353 71.5877 131.207 71.7131 131.68C71.7272 131.666 71.7343 131.7 71.7485 131.763C71.7832 131.311 72.2159 131.144 72.23 131.707C72.2718 131.52 72.3412 131.52 72.3625 131.547C72.4949 132.021 72.2017 132.584 72.2017 131.951H72.1812L72.1812 131.951ZM27.754 130.587V130.406C27.754 130.406 27.74 130.51 27.74 130.601L27.754 130.587Z"
            fill="black" />
        <path
            d="M21.3245 133.691C21.2478 133.733 21.0803 133.886 20.9896 133.782C20.8918 134.206 20.7662 133.942 20.6406 133.844C20.5429 133.76 20.4242 134.373 20.3614 133.746C20.3196 133.782 20.2917 133.684 20.2638 133.984C20.2009 134.046 20.0753 134.22 20.0474 133.704C19.531 134.15 18.9378 133.726 18.5121 133.921C18.4004 133.921 18.3097 133.816 18.191 133.642C18.0933 133.462 17.877 133.983 17.7374 133.698C17.7374 133.816 17.7234 133.886 17.7095 133.872C16.7255 133.788 15.7555 133.844 14.7923 133.893C14.3108 133.921 13.8293 133.942 13.3547 133.948L12.4335 133.935C12.0428 133.921 11.6589 133.906 11.3099 133.879V133.837C11.2332 133.058 11.1564 132.278 11.0796 131.498C11.0238 130.914 10.982 130.329 10.954 129.737C10.8982 128.561 10.8982 127.371 10.9192 126.188C10.961 123.814 11.0866 121.433 11.0448 119.116C11.2471 116.916 11.0238 114.599 10.9959 112.448C11.2402 111.779 10.8563 111.014 11.1145 110.38C11.2262 110.206 10.619 109.866 11.7147 109.726C11.4426 109.622 12.7964 109.705 12.1055 109.747C12.7895 110.68 12.6568 114.501 12.5592 115.823C13.1384 120.438 12.5592 125.269 12.4963 129.814C12.4684 130.294 12.6359 130.795 12.5941 131.317C12.6848 131.596 12.7127 131.839 12.6987 132.09C12.6987 132.145 12.6917 132.236 12.6848 132.257L12.6568 132.313C12.6359 132.354 12.608 132.41 12.5871 132.487C12.6987 132.466 12.7545 132.438 12.7964 132.41H12.8034C12.8732 132.361 13.0826 132.069 12.6987 132.605C12.7895 132.556 13.0826 132.007 12.8941 132.376C12.8453 132.494 12.8871 132.431 12.9011 132.403C12.922 132.376 12.9151 132.382 12.8732 132.64C12.8941 132.709 12.922 132.696 12.9709 132.66C13.0477 132.626 13.1244 132.556 13.1942 132.514C13.3408 132.424 13.4873 132.396 13.6269 132.82C14.1782 132.216 14.7714 132.556 15.3297 132.793C15.3297 132.529 15.4135 132.445 15.4135 132.807C16.1881 133.071 17.0325 132.32 17.8491 132.856C18.198 132.605 18.5121 132.709 18.7773 132.876C18.7773 132.549 18.9028 132.438 18.9099 132.918C19.0983 133.384 19.4123 132.208 19.517 132.953C19.7403 132.946 20.0125 132.702 20.2567 132.898C20.3126 133.009 20.3824 132.758 20.4382 133.12C20.487 133.148 20.529 132.793 20.5499 133.204C20.7523 133.106 20.8918 132.953 20.9896 133.433C20.9965 133.42 21.0105 133.454 21.0175 133.517C21.0384 133.058 21.3594 132.891 21.3733 133.454C21.4013 133.266 21.4502 133.26 21.4711 133.294C21.5757 133.768 21.3664 134.331 21.3594 133.698L21.3245 133.691V133.691ZM11.9869 109.698H12.1683C12.1683 109.698 12.0636 109.691 11.9729 109.691H11.9869V109.698Z"
            fill="black" />
        <path
            d="M107.367 17.8293C107.66 17.8293 108.323 17.7806 108.651 17.9406C109.105 17.5857 109.524 17.9198 109.992 18.0938C110.34 18.2539 110.919 17.7597 111.031 18.4279C111.191 18.4279 111.283 18.5462 111.464 18.2817C111.701 18.2748 112.232 18.2051 112.218 18.7341C112.727 18.7202 113.244 18.8107 113.753 18.9429C114.262 19.0682 114.772 19.2214 115.261 19.3815C116.23 19.7573 117.144 20.1749 117.955 20.4185C118.345 20.6135 118.624 20.878 118.959 21.2399C119.092 21.4069 119.398 21.4696 119.727 21.5601C120.041 21.6714 120.362 21.8246 120.515 22.096C120.592 22.0056 120.676 21.9776 120.711 22.0194C122.344 23.0843 123.725 24.5113 124.856 26.0773L125.652 27.2954C125.896 27.713 126.084 28.1585 126.301 28.5831C126.769 29.4322 127.006 30.358 127.341 31.2559C128.429 34.91 128.611 38.6826 128.45 42.3159C128.541 46.7636 128.192 51.26 127.683 55.7564C127.166 60.2458 126.496 64.7491 125.784 69.2386C124.354 78.2172 122.804 87.1755 121.59 95.9596C120.194 104.249 119.28 113.068 118.401 121.226C117.857 123.724 117.947 126.683 117.445 129.077C117.263 129.738 117.738 131.096 116.593 131.506C116.824 131.924 115.505 131.485 116.217 131.388C116.077 129.578 116.356 125.033 116.872 120.328C117.347 115.616 118.038 110.743 118.401 108.231C119.238 99.4396 120.55 90.4955 122.002 81.6073C123.446 72.7185 125.065 63.893 126.196 55.283C126.441 53.4664 126.51 51.5593 126.727 49.5895C126.747 48.5176 126.789 47.6058 126.859 46.6661C126.943 45.7265 127.055 44.759 127.138 43.5757C127.04 43.0328 127.006 42.5665 126.977 42.1419C126.95 41.9679 126.642 41.2788 127.18 41.1257C127.124 40.8055 126.573 40.4784 126.936 40.1512C127.173 39.9007 126.671 39.3786 127.194 39.142C127.299 38.5781 127.089 38.0074 126.957 37.4576C126.824 36.9007 126.783 36.3647 127.118 35.8219C126.294 33.8312 126.133 31.6943 125.617 29.655C125.366 29.7454 125.163 29.5227 125.498 29.3696C125.373 29.0285 125.233 28.6944 125.08 28.3533C125.003 28.1863 124.933 28.0123 124.835 27.8522L124.521 27.3928C124.305 27.0866 124.089 26.7873 123.865 26.4741C123.649 26.1678 123.349 25.9242 123.097 25.6458C122.825 25.3813 122.588 25.089 122.309 24.8384C122.016 24.6017 121.73 24.3581 121.451 24.1006C120.92 23.5576 120.278 23.154 119.733 22.6041C119.581 22.5415 119.441 22.4718 119.294 22.4023C119.141 22.3466 118.994 22.2909 118.855 22.2282C118.569 22.11 118.303 21.9776 118.045 21.8385C117.794 21.6993 117.549 21.5531 117.326 21.4069C117.089 21.2816 116.865 21.1563 116.649 21.0241C116.537 21.3304 116.049 21.2607 116.195 20.8083C115.944 20.4673 115.442 20.4464 114.995 20.4394C114.535 20.4534 114.13 20.4394 114.046 20.0357C113.641 19.9244 113.174 19.8478 112.706 19.7504C112.232 19.6668 111.75 19.5833 111.325 19.3884C111.143 19.2353 110.836 19.4232 110.711 19.0195C110.521 18.9499 110.305 19.2701 110.305 18.8455C109.531 18.769 108.986 18.8734 108.7 18.3304C108.665 18.3374 108.631 18.3026 108.624 18.233C108.477 18.6715 107.249 18.6437 107.269 18.0799C107.137 18.2469 106.942 18.2191 106.886 18.1773C106.537 17.6414 107.43 17.2098 107.367 17.8432V17.8293V17.8293ZM116.3 131.548L116.119 131.534C116.119 131.534 116.224 131.582 116.307 131.582V131.548H116.3L116.3 131.548Z"
            fill="black" />
        <path
            d="M10.7491 94.9503C10.6863 94.8179 10.5048 94.5253 10.5886 94.3447C10.1489 94.2052 10.3862 93.9551 10.456 93.7115C10.5188 93.523 9.89071 93.37 10.4978 93.1823C10.456 93.1129 10.5467 93.0428 10.2396 93.0223C10.1699 92.9174 9.96748 92.7021 10.4699 92.5973C9.92562 91.6998 10.2466 90.558 9.97442 89.7852C9.95353 89.584 10.0372 89.4027 10.1908 89.1661C10.3513 88.9642 9.80693 88.6164 10.0651 88.331C9.94651 88.331 9.86975 88.3168 9.8837 88.2892C9.75113 84.642 9.15795 81.0436 9.50688 77.4935C9.40915 75.3288 9.50688 73.0947 9.99538 70.8603C10.2257 69.7396 10.6165 68.6329 11.112 67.5541C11.6563 66.503 12.2984 65.452 13.1847 64.6029C13.5895 64.1435 14.0989 63.8024 14.5735 63.4196C14.8247 63.2526 15.0899 63.0994 15.3481 62.9463C15.6063 62.7862 15.8715 62.6401 16.1437 62.5287L16.9602 62.1668C17.2394 62.0624 17.5185 61.9788 17.7977 61.8883C18.356 61.6865 18.9282 61.5821 19.4935 61.4499C21.7616 60.9974 24.0157 60.9487 26.2071 60.9904C30.3525 61.3176 34.6724 61.7004 38.6364 62.3199C39.8158 62.7653 41.2952 62.6261 42.4188 63.0925C42.719 63.2595 43.4587 62.7723 43.5075 63.8929C43.7448 63.6562 43.354 64.9648 43.3959 64.2687C42.4817 64.4497 40.2903 64.1852 38.0222 63.8581C35.7541 63.538 33.4162 63.1412 32.2019 62.9602C30.0734 62.8419 27.9309 62.7445 25.7953 62.7236C23.6668 62.7166 21.5244 62.8001 19.4935 63.2386C18.4676 63.4335 17.5115 63.8024 16.5903 64.2131L15.9343 64.589L15.6063 64.7769L15.3062 65.0066L14.7061 65.466L14.1687 65.9949C13.9802 66.162 13.8198 66.3569 13.6732 66.5587L13.2126 67.1573C12.9683 67.6028 12.6543 68.0065 12.4589 68.4798C12.2426 68.9392 12.0192 69.3986 11.8727 69.8928L11.6214 70.6166L11.433 71.3614C11.3144 71.7793 11.2446 72.2178 11.2097 72.6697C11.1748 73.1223 11.098 73.575 11.0422 74.0481C11.0771 74.5702 11.0562 75.0016 10.9933 75.4471C10.9515 75.8997 10.8747 76.3587 10.784 76.9226C10.8817 77.1875 10.9235 77.4099 10.9654 77.6188C11.0073 77.7024 11.2934 78.0431 10.756 78.1062C10.8049 78.2592 11.3493 78.4398 10.9794 78.5864C10.7351 78.6976 11.2236 78.9689 10.7002 79.0667C10.4211 79.6093 11.3702 80.1873 10.5327 80.6817C11.1399 81.684 10.8608 82.7691 10.6584 83.8068C10.9235 83.7998 11.0143 83.9386 10.6584 83.9598C10.4769 85.4077 11.3283 86.9037 10.9235 88.4422C11.2236 89.0549 11.1748 89.6534 11.0562 90.1407C11.3841 90.1053 11.5168 90.3285 11.0422 90.3908C10.6095 90.7811 11.8378 91.2401 11.119 91.505C11.1678 91.9088 11.4609 92.3954 11.3144 92.8551C11.2166 92.9663 11.4749 93.0711 11.1259 93.21C11.105 93.3077 11.4749 93.3424 11.0631 93.426C11.2027 93.788 11.3772 94.0246 10.9235 94.254C10.9375 94.2682 10.9096 94.2888 10.8468 94.31C11.3074 94.2958 11.5377 94.8668 10.9794 94.9567C11.1678 94.985 11.1887 95.0821 11.1538 95.1175C10.7072 95.3675 10.0931 95.0403 10.7281 94.9567L10.7491 94.9503ZM43.5215 64.1923L43.4866 64.3731C43.4866 64.3731 43.5215 64.2688 43.5354 64.1852H43.5145L43.5215 64.1922V64.1923Z"
            fill="black" />
        <path
            d="M64.9276 18.3099C64.7741 18.303 64.4252 18.3377 64.3065 18.1777C63.9785 18.5118 63.8598 18.1846 63.6715 18.0106C63.5249 17.8714 63.1131 18.3656 63.2109 17.7322C63.1271 17.7322 63.1062 17.6278 62.9527 17.8853C62.827 17.9062 62.5408 17.9897 62.6595 17.4817C61.6057 17.593 60.6705 16.8552 59.8401 16.8065C59.6377 16.7577 59.5051 16.6116 59.3307 16.3888C59.1911 16.1661 58.6746 16.5629 58.4862 16.2288C58.4513 16.3402 58.4095 16.4028 58.3885 16.3819C57.5091 16.0756 56.6019 15.9504 55.7156 15.7625C55.269 15.6998 54.8154 15.665 54.3687 15.6163C54.1454 15.5954 53.9221 15.5675 53.6988 15.5536H53.0288C51.2562 15.5258 49.5254 15.7346 47.99 16.3541C47.5714 16.6464 47.1387 16.89 46.8037 17.2589C46.4129 17.5652 46.1407 17.9897 45.8336 18.3656C45.3102 19.2009 44.8566 20.0987 44.6124 21.108C44.054 23.0987 43.9215 25.2842 43.9494 27.4698C44.0331 31.8687 44.6821 36.3303 45.5615 40.6179C46.1756 44.7385 47.3899 48.9704 48.346 52.9378C48.3948 54.2254 49.0997 55.5549 49.1276 56.7939C49.0928 57.1419 49.8325 57.643 48.8275 58.1372C49.1416 58.2624 47.7807 58.4225 48.4367 58.1859C47.376 56.6129 45.8406 49.5272 45.4009 47.0354C44.1587 42.8174 43.2306 38.4045 42.6722 33.929C42.407 31.6878 42.2466 29.4326 42.2674 27.1775C42.2954 24.9292 42.4977 22.6601 43.1957 20.5094C43.3282 20.05 43.5027 19.5906 43.6842 19.1243C43.8308 18.6371 44.1308 18.1986 44.4239 17.7531C44.5286 17.4747 44.717 17.2728 44.8706 17.0571C45.0381 16.8483 45.1985 16.6464 45.387 16.4724C45.5964 16.3123 45.8127 16.1522 46.043 15.9991L46.4059 15.7554C46.5385 15.6859 46.6851 15.6302 46.8316 15.5606C47.034 15.317 47.2364 15.1429 47.4248 14.9898C47.4806 14.8924 47.7458 14.5026 48.025 14.9689C48.1645 14.8646 48.1645 14.2798 48.4507 14.5722C48.6461 14.7671 48.7926 14.1685 49.0439 14.6558C49.3649 14.7253 49.6301 14.5026 49.9162 14.3495C50.1954 14.1894 50.5025 14.1198 50.8095 14.5304C51.8493 13.8065 53.0916 14.1824 54.1245 14.5096C54.1524 14.2451 54.3129 14.1824 54.2849 14.5443C55.0178 14.774 55.8133 14.7184 56.6019 14.8088C57.3975 14.8715 58.2 14.9759 58.884 15.4562C59.5889 15.3865 60.1681 15.6232 60.5868 15.9434C60.6705 15.6302 60.9428 15.5954 60.8171 16.0548C61.0195 16.6047 61.9407 15.6719 61.9128 16.4376C62.3175 16.5559 62.9038 16.4863 63.2667 16.8343C63.3295 16.9736 63.5388 16.7856 63.5109 17.1615C63.5947 17.2241 63.7831 16.9109 63.6854 17.3146C64.0832 17.3563 64.3832 17.3076 64.3832 17.8158C64.4042 17.8158 64.4111 17.8436 64.3972 17.9062C64.5927 17.4886 65.2277 17.5443 65.0462 18.0803C65.1649 17.9271 65.2556 17.955 65.2765 17.9967C65.2975 18.5048 64.7113 18.9016 64.9346 18.303L64.9276 18.3099L64.9276 18.3099ZM48.5484 58.2624L48.374 58.3042C48.374 58.3042 48.4856 58.3042 48.5623 58.2764L48.5484 58.2624Z"
            fill="black" />
        <path
            d="M63.2126 79.3514C63.0102 79.3861 62.5845 79.5186 62.3542 79.4003C62.089 79.8182 61.7959 79.5186 61.4679 79.4491C61.2166 79.3797 60.9445 79.9988 60.749 79.3797C60.6444 79.4144 60.5607 79.3238 60.5118 79.6234C60.3653 79.6928 60.0651 79.8734 59.9395 79.3861C59.6255 79.5462 59.3045 79.651 58.9695 79.7204C58.8019 79.7551 58.6345 79.7835 58.467 79.8111L57.9715 79.9223C57.6435 79.9917 57.3225 80.0618 57.0154 80.1242C56.7153 80.2149 56.4431 80.3402 56.2059 80.472C55.9476 80.5768 55.6894 80.535 55.3405 80.5138C55.0334 80.4656 54.7752 81.1683 54.3286 81.0776C54.3774 81.1824 54.3844 81.266 54.3425 81.266C52.1442 82.4001 50.3577 84.2587 49.262 86.4092C48.1733 88.581 47.6499 90.9475 47.587 93.3488C47.7964 96.3351 48.1872 99.3625 48.3687 102.488C48.5432 105.599 48.4733 108.892 47.4894 112.059C47.1823 112.831 46.959 113.631 46.5402 114.355L45.961 115.462L45.2561 116.485C44.8165 117.196 44.2093 117.759 43.679 118.386C43.1276 118.991 42.4646 119.485 41.8784 120.035C41.8715 120.021 41.7458 120.112 41.6621 120.161C41.6621 120.202 41.7388 120.195 42.0459 120.23C42.6042 120.279 43.1625 120.327 43.7208 120.376C44.4815 120.432 45.2422 120.494 46.0029 120.55C51.7464 121.19 57.8529 121.343 63.4917 121.657C65.2225 122.005 67.2603 121.747 68.9212 122.095C69.3748 122.235 70.3101 121.678 70.6031 122.791C70.8893 122.534 70.6031 123.87 70.5263 123.174C68.0279 123.724 58.0064 122.986 54.531 122.652C51.4952 122.597 48.4245 122.464 45.3399 122.248L43.023 122.074L42.4437 122.026L41.6481 121.949L39.7568 121.754C38.738 121.531 35.8278 121.74 38.1308 120.605L39.8406 119.367C40.1337 119.151 40.3919 118.984 40.706 118.726L41.1526 118.337C43.4137 116.436 45.1794 113.98 45.9959 111.146C46.8333 108.321 46.952 105.307 46.8333 102.349C46.8054 101.096 46.5612 99.801 46.5193 98.4296C46.2541 96.9683 46.2611 95.9037 46.3379 94.2469C46.2192 93.8708 46.1564 93.5436 46.1076 93.2446C46.0517 93.1334 45.7935 92.6043 46.3309 92.5136C46.289 92.2841 45.7517 91.9987 46.1355 91.7897C46.3727 91.6367 45.9261 91.1841 46.4774 91.0934C46.6729 90.7109 46.5612 90.2796 46.5402 89.8482C46.5472 89.4303 46.6309 89.0194 47.1265 88.7899C46.9799 87.1749 47.9848 85.7066 49.0596 84.6348C48.8432 84.4811 48.8921 84.2446 49.1922 84.4535C49.569 84.0774 49.904 83.6602 50.232 83.2288C50.6019 82.8321 50.9369 82.3866 51.3347 81.9899C52.1233 81.203 53.0585 80.4861 54.168 80.2283C54.531 79.9223 54.9148 79.651 55.3195 79.5256C55.7243 79.3932 56.1151 79.3238 56.4711 79.282C56.3524 78.976 56.6665 78.7458 56.82 79.2055C57.4202 79.5398 57.9645 78.1756 58.4042 78.8506C58.9835 78.7741 59.6953 78.3704 60.3583 78.5439C60.5118 78.6487 60.6863 78.3909 60.8468 78.7458C60.9863 78.767 61.0771 78.4051 61.1469 78.8159C61.6772 78.6834 62.0541 78.5439 62.2914 79.0383C62.3123 79.0241 62.3402 79.0596 62.3542 79.1219C62.41 78.6693 63.2823 78.5375 63.2754 79.1077C63.3591 78.9271 63.4987 78.9271 63.5406 78.9618C63.7709 79.4421 63.1847 79.9854 63.2196 79.3514H63.2126V79.3514ZM70.652 123.097V123.279C70.652 123.279 70.6729 123.174 70.6729 123.09H70.652V123.097Z"
            fill="black" />
        <path
            d="M104.971 17.1989C104.928 17.2038 104.889 17.203 104.846 17.1973L105.082 17.2289C105.029 17.2183 104.98 17.202 104.93 17.1816L105.141 17.2709C104.874 17.1521 104.616 17.0079 104.355 16.8756C104.087 16.7403 103.82 16.6049 103.553 16.4695C103.34 16.3618 103.106 16.3155 102.871 16.3803C102.666 16.4369 102.443 16.5957 102.342 16.7872C102.233 16.9927 102.179 17.2416 102.253 17.4695C102.321 17.6815 102.454 17.8946 102.659 17.9986C102.987 18.1644 103.314 18.3301 103.641 18.4959C103.804 18.5788 103.968 18.6623 104.132 18.7445C104.387 18.8723 104.677 19.0035 104.971 18.9697C105.093 18.9743 105.206 18.9489 105.312 18.8934C105.422 18.8577 105.517 18.7967 105.597 18.7104C105.75 18.5568 105.866 18.3048 105.856 18.0843C105.846 17.8553 105.771 17.6178 105.597 17.4582C105.435 17.3099 105.199 17.1727 104.971 17.1989Z"
            fill="#F8F7F5" />
        <path
            d="M106.091 18.5049C105.749 18.491 105.043 18.6301 104.666 18.5466C104.471 18.7833 104.262 18.8251 104.032 18.839C103.808 18.8738 103.543 18.8181 103.292 18.8599C103.104 18.9017 102.943 19.0826 102.817 19.2288C102.691 19.3819 102.559 19.4585 102.259 19.2706C102.155 19.4028 102.001 19.4097 102.119 19.709C102.05 19.7926 101.98 19.9596 101.876 20.0849C101.771 20.2032 101.596 20.2519 101.359 20.1684C100.968 21.1568 100.689 22.2496 100.521 23.3911C100.361 24.5187 100.319 25.6601 100.451 26.5998C100.486 27.087 100.395 27.4977 100.277 28.0476C100.138 28.5139 100.752 29.3979 100.556 30.0591C100.675 30.0591 100.759 30.1078 100.752 30.1705C101.268 34.5416 102.294 38.8292 103.18 43.1028C104.067 47.3905 104.82 51.6572 105.169 55.9447C105.525 58.541 105.811 61.1859 105.623 63.9283C105.511 65.2925 105.267 66.7263 104.527 68.0975C104.116 68.7518 103.606 69.42 102.901 69.8516C102.573 70.1091 102.196 70.2414 101.833 70.4153C101.463 70.5337 101.087 70.6729 100.724 70.7286C99.2369 71.0137 97.8205 70.9444 96.453 70.833C95.0848 70.7147 93.7449 70.5337 92.4192 70.3527C89.7671 69.9908 87.1362 69.6428 84.4982 69.4966C83.8417 69.4688 83.1788 69.4201 82.516 69.413L81.5252 69.3922L80.5692 69.413C79.3058 69.4757 78.0636 69.6845 76.898 70.0882C75.7323 70.485 74.6438 71.0838 73.6878 71.8559C72.7317 72.6287 71.9294 73.5892 71.2523 74.6403C69.9053 76.7561 69.0958 79.2409 68.5863 81.7605C68.0909 84.2942 67.8675 86.8768 67.8187 89.4586C67.6023 94.3518 68.0281 99.4263 68.698 104.424C69.3679 109.422 70.2962 114.363 71.1964 119.117C71.4967 122.11 72.5434 125.444 72.7594 128.353C72.7806 129.147 73.6042 130.643 72.571 131.388C72.8925 131.827 71.5037 131.59 72.1737 131.332C71.6567 129.279 70.5125 124.066 69.4517 118.574C68.377 113.089 67.5465 107.319 67.2394 104.333C66.4508 99.1685 65.9344 93.8716 66.1019 88.5052C66.1926 85.8256 66.4648 83.1247 67.0719 80.4593C67.693 77.8073 68.6631 75.1553 70.338 72.8794C71.1755 71.7447 72.1871 70.7216 73.367 69.9212C74.5461 69.1207 75.8654 68.5361 77.2188 68.1811C78.5799 67.8261 79.9686 67.68 81.3432 67.6869C82.6902 67.7009 84.0237 67.7565 85.3494 67.8679C88.0086 68.0697 90.6253 68.4525 93.2003 68.8284C94.4913 69.0094 95.7689 69.1973 97.0386 69.3086C98.295 69.3992 99.5725 69.4548 100.71 69.1694C101.68 68.9467 102.51 68.3899 103.027 67.5547C103.557 66.7194 103.815 65.6614 104.011 64.5687C104.143 62.1395 104.143 60.3715 104.038 57.5804C103.885 56.954 103.752 56.418 103.662 55.9169C103.599 55.722 103.222 54.9424 103.725 54.6919C103.627 54.323 103.027 53.9958 103.348 53.5712C103.55 53.2511 102.978 52.6873 103.453 52.3601C103.522 51.0029 102.392 49.7361 103.02 48.4275C102.028 46.0819 101.854 43.43 101.589 40.9173C101.324 40.9591 101.17 40.6319 101.526 40.5484C101.101 37.0752 99.5654 33.4697 99.6419 29.718C99.1951 28.1937 99.1951 26.7042 99.3487 25.521C99.0208 25.5419 98.9231 24.9293 99.3976 24.9154C99.6278 24.4908 99.4953 23.9201 99.4118 23.3772C99.3771 23.1057 99.3487 22.8412 99.3771 22.6185C99.4259 22.4027 99.53 22.2287 99.7326 22.1452C99.7743 21.8946 99.8374 21.6231 99.9075 21.3447C99.9627 21.0594 100.06 20.774 100.165 20.4886C100.256 20.1963 100.444 19.9318 100.598 19.6604C100.786 19.4167 101.003 19.18 101.24 19.0061C101.519 18.9155 101.61 18.4631 102.057 18.6441C102.273 18.5537 102.266 18.1221 102.545 18.4492L103.118 18.143C103.299 18.0664 103.48 18.0177 103.641 17.9829C103.969 17.8994 104.255 17.9829 104.485 18.1986C104.527 18.1848 104.569 18.2126 104.597 18.2683C104.632 17.7601 106.174 17.6697 106.153 18.2683C106.292 18.0942 106.537 18.1221 106.6 18.1639C106.984 18.6859 106.006 19.1383 106.055 18.5049H106.091L106.091 18.5049ZM72.292 131.541L72.1107 131.562C72.1107 131.562 72.2226 131.597 72.3061 131.583L72.292 131.549V131.541Z"
            fill="black" />
    </g>
    <defs>
        <clipPath id="clip0_2151_50834">
            <rect width="128" height="136" fill="white" transform="translate(0.5 0.128906)" />
        </clipPath>
    </defs>
</svg>
    